# xmcd
#
# Track frame offsets:
#	150
#	14374
#	30072
#	43037
#	56088
#	70548
#	85360
#	99397
#	110516
#	128984
#
# Disc length: 1922 seconds
# Revision: 0
# Processed by: cddbd v1.5.2PL0 Copyright (c) Steve Scherf et al.
# Submitted via: dBpowerAMP V12.0
#
DISCID=7807800a
DTITLE=The Pine Street String Band - Banjo Christmas: Christmas Treasures Series CD2
DYEAR=2012
DGENRE=Christmas
TTITLE0=O Come All Ye Faithful
TTITLE1=We Three Kings
TTITLE2=O Mary, Where Is Your Baby?
TTITLE3=What Child Is This?
TTITLE4=Christmas Eve - Star Of Bethlehem
TTITLE5=Hooves On The Rooftop
TTITLE6=O Jerusalem In The Mornin'
TTITLE7=Joseph and Mary
TTITLE8=Angels We Have Heard On High
TTITLE9=Silent Night
EXTD=
EXTT0=
EXTT1=
EXTT2=
EXTT3=
EXTT4=
EXTT5=
EXTT6=
EXTT7=
EXTT8=
EXTT9=
PLAYORDER=
